<svg width="129" height="112" viewBox="0 0 129 112" fill="none" xmlns="http://www.w3.org/2000/svg">
<path d="M113.709 73.022C113.709 93.698 91.677 110.463 64.5 110.463C37.322 110.463 15.291 93.697 15.291 73.022C15.291 52.342 37.322 27.563 64.5 27.563C91.677 27.563 113.709 52.343 113.709 73.022Z" fill="#FFF800"/>
<path d="M113.709 73.022C113.709 93.698 91.677 110.463 64.5 110.463C37.322 110.463 15.291 93.697 15.291 73.022C15.291 52.342 37.322 38.094 64.5 38.094C91.677 38.095 113.709 52.343 113.709 73.022Z" fill="#FFD400"/>
<path d="M74.979 63.224C74.979 64.617 70.288 64.867 64.5 64.867C58.712 64.867 54.021 64.617 54.021 63.224C54.021 61.829 58.712 58.187 64.5 58.187C70.288 58.187 74.979 61.829 74.979 63.224Z" fill="#FFF800"/>
<path d="M113.709 73.022C113.709 93.698 91.677 110.463 64.5 110.463C37.322 110.463 15.291 93.697 15.291 73.022C15.291 52.34 21.552 91.362 64.5 91.362C107.448 91.362 113.709 52.341 113.709 73.022Z" fill="#FFB000"/>
<path d="M64.5 111.964C36.539 111.964 13.791 94.495 13.791 73.023C13.791 51.753 36.41 26.064 64.5 26.064C77.541 26.064 90.272 31.536 100.349 41.47C109.654 50.644 115.209 62.44 115.209 73.023C115.209 94.495 92.461 111.964 64.5 111.964ZM64.5 29.063C38.072 29.063 16.791 53.111 16.791 73.022C16.791 92.84 38.193 108.963 64.5 108.963C90.807 108.963 112.209 92.84 112.209 73.022C112.209 53.111 90.928 29.063 64.5 29.063Z" fill="#33363A"/>
<path d="M9.80703 35.882C16.192 46.423 25.138 52.62 33.792 53.693C35.284 42.939 32.92 30.461 26.534 19.92C20.148 9.376 11.202 3.179 2.54903 2.11C1.05703 12.86 3.42103 25.341 9.80703 35.882Z" fill="#FFD400"/>
<path d="M2.54903 2.11C1.05703 12.86 3.42103 25.34 9.80703 35.881C16.192 46.422 25.138 52.619 33.792 53.692L2.54903 2.11Z" fill="#FFB000"/>
<path d="M25.453 52.597C25.226 52.597 24.998 52.546 24.782 52.438C18.484 49.282 12.862 43.826 8.52301 36.66C2.17101 26.175 -0.547986 13.507 1.06301 1.905C1.17501 1.093 1.91601 0.521995 2.73201 0.622995C12.257 1.79899 21.4 8.549 27.817 19.143C31.603 25.393 34.155 32.573 35.196 39.907C35.312 40.727 34.742 41.487 33.922 41.603C33.105 41.713 32.343 41.149 32.226 40.329C31.242 33.392 28.83 26.604 25.251 20.698C19.656 11.461 11.926 5.39399 3.85101 3.83599C2.76201 14.346 5.36501 25.655 11.09 35.104C15.136 41.787 20.335 46.852 26.126 49.755C26.867 50.126 27.166 51.027 26.795 51.768C26.532 52.294 26.003 52.597 25.453 52.597Z" fill="#33363A"/>
<path d="M18.672 10.169C13.668 5.55 8.05002 2.79 2.54902 2.11C1.51602 9.56 2.33702 17.839 5.06102 25.726C11.7 23.673 20.482 29.196 18.672 10.169Z" fill="#33363A"/>
<path d="M119.193 35.882C112.808 46.423 103.862 52.62 95.208 53.693C93.716 42.939 96.079 30.461 102.466 19.92C108.852 9.37699 117.798 3.17999 126.452 2.11099C127.943 12.86 125.58 25.341 119.193 35.882Z" fill="#FFD400"/>
<path d="M126.452 2.11C127.943 12.86 125.58 25.34 119.193 35.881C112.808 46.422 103.862 52.619 95.208 53.692L126.452 2.11Z" fill="#FFB000"/>
<path d="M103.547 52.597C102.997 52.597 102.468 52.294 102.205 51.769C101.834 51.029 102.133 50.127 102.874 49.756C108.663 46.855 113.862 41.788 117.91 35.105C123.635 25.658 126.238 14.347 125.15 3.834C117.074 5.393 109.343 11.459 103.749 20.696C100.17 26.605 97.758 33.393 96.775 40.327C96.659 41.146 95.911 41.716 95.079 41.601C94.259 41.485 93.688 40.725 93.805 39.905C94.844 32.575 97.396 25.394 101.183 19.141C107.6 8.547 116.744 1.797 126.269 0.620998C127.081 0.520998 127.826 1.091 127.938 1.903C129.548 13.507 126.829 26.174 120.477 36.658C116.136 43.825 110.514 49.281 104.218 52.436C104.002 52.546 103.772 52.597 103.547 52.597Z" fill="#33363A"/>
<path d="M110.328 10.169C115.333 5.55 120.95 2.79 126.452 2.11C127.485 9.559 126.664 17.839 123.94 25.725C117.3 23.673 108.517 29.196 110.328 10.169Z" fill="#33363A"/>
<path d="M33.499 83.397C37.3721 83.397 40.512 80.2572 40.512 76.384C40.512 72.5108 37.3721 69.371 33.499 69.371C29.6258 69.371 26.486 72.5108 26.486 76.384C26.486 80.2572 29.6258 83.397 33.499 83.397Z" fill="#FF1A1A"/>
<path d="M40.512 76.384C40.512 80.255 37.372 83.396 33.499 83.396C29.625 83.396 26.485 80.255 26.485 76.384" fill="#D61D1D"/>
<path d="M95.501 83.398C99.3747 83.398 102.515 80.2577 102.515 76.384C102.515 72.5103 99.3747 69.37 95.501 69.37C91.6273 69.37 88.487 72.5103 88.487 76.384C88.487 80.2577 91.6273 83.398 95.501 83.398Z" fill="#FF1A1A"/>
<path d="M102.515 76.384C102.515 80.255 99.374 83.396 95.501 83.396C91.628 83.396 88.487 80.255 88.487 76.384" fill="#D61D1D"/>
<path d="M60.582 65.823L64.5 67.784L68.419 65.823H60.582Z" fill="#33363A"/>
<path d="M64.5 69.284C64.27 69.284 64.04 69.231 63.829 69.126L59.911 67.165C59.289 66.853 58.962 66.155 59.122 65.478C59.282 64.801 59.887 64.323 60.582 64.323H68.419C69.114 64.323 69.719 64.802 69.879 65.478C70.039 66.154 69.712 66.853 69.09 67.165L65.171 69.126C64.96 69.231 64.73 69.284 64.5 69.284Z" fill="#33363A"/>
<path d="M60.41 75.978H58.953C55.87 75.978 53.362 73.471 53.362 70.39C53.362 69.562 54.034 68.89 54.862 68.89C55.69 68.89 56.362 69.562 56.362 70.39C56.362 71.817 57.524 72.978 58.953 72.978H60.41C61.838 72.978 62.999 71.817 62.999 70.39V68.935C62.999 68.107 63.671 67.435 64.499 67.435C65.327 67.435 65.999 68.107 65.999 68.935V70.39C65.999 73.471 63.492 75.978 60.41 75.978Z" fill="#33363A"/>
<path d="M70.047 75.978H68.591C65.509 75.978 63.001 73.471 63.001 70.39V68.935C63.001 68.107 63.673 67.435 64.501 67.435C65.329 67.435 66.001 68.107 66.001 68.935V70.39C66.001 71.817 67.163 72.978 68.591 72.978H70.047C71.476 72.978 72.638 71.817 72.638 70.39C72.638 69.562 73.31 68.89 74.138 68.89C74.966 68.89 75.638 69.562 75.638 70.39C75.638 73.471 73.13 75.978 70.047 75.978Z" fill="#33363A"/>
<path d="M48.338 58.753C48.338 63.202 44.733 66.804 40.285 66.804C35.839 66.804 32.234 63.202 32.234 58.753C32.234 54.306 35.838 50.7 40.285 50.7C44.732 50.7 48.338 54.306 48.338 58.753Z" fill="#6D5C4D"/>
<path d="M48.338 58.753C48.338 63.202 44.733 60.415 40.285 60.415C35.839 60.415 32.234 63.202 32.234 58.753C32.234 54.306 35.838 50.7 40.285 50.7C44.732 50.7 48.338 54.306 48.338 58.753Z" fill="#33363A"/>
<path d="M40.285 68.304C35.018 68.304 30.734 64.02 30.734 58.753C30.734 53.485 35.018 49.2 40.285 49.2C45.553 49.2 49.838 53.485 49.838 58.753C49.838 64.02 45.553 68.304 40.285 68.304ZM40.285 52.2C36.673 52.2 33.734 55.139 33.734 58.753C33.734 62.365 36.672 65.304 40.285 65.304C43.898 65.304 46.838 62.366 46.838 58.753C46.838 55.14 43.898 52.2 40.285 52.2Z" fill="#33363A"/>
<path d="M36.282 59.417C38.094 59.417 39.563 57.948 39.563 56.136C39.563 54.3239 38.094 52.855 36.282 52.855C34.4699 52.855 33.001 54.3239 33.001 56.136C33.001 57.948 34.4699 59.417 36.282 59.417Z" fill="white"/>
<path d="M36.281 60.915C33.645 60.915 31.501 58.771 31.501 56.136C31.501 53.501 33.646 51.357 36.281 51.357C38.918 51.357 41.062 53.501 41.062 56.136C41.062 58.771 38.918 60.915 36.281 60.915ZM36.281 54.356C35.3 54.356 34.501 55.154 34.501 56.135C34.501 57.116 35.3 57.914 36.281 57.914C37.263 57.914 38.062 57.116 38.062 56.135C38.062 55.154 37.264 54.356 36.281 54.356Z" fill="#33363A"/>
<path d="M96.765 58.753C96.765 63.202 93.161 66.804 88.714 66.804C84.267 66.804 80.662 63.202 80.662 58.753C80.662 54.306 84.266 50.7 88.714 50.7C93.16 50.7 96.765 54.306 96.765 58.753Z" fill="#6D5C4D"/>
<path d="M96.765 58.753C96.765 63.202 93.161 60.415 88.714 60.415C84.267 60.415 80.662 63.202 80.662 58.753C80.662 54.306 84.266 50.7 88.714 50.7C93.16 50.7 96.765 54.306 96.765 58.753Z" fill="#33363A"/>
<path d="M88.714 68.304C83.447 68.304 79.162 64.02 79.162 58.753C79.162 53.485 83.447 49.2 88.714 49.2C93.981 49.2 98.265 53.485 98.265 58.753C98.265 64.02 93.98 68.304 88.714 68.304ZM88.714 52.2C85.102 52.2 82.162 55.139 82.162 58.753C82.162 62.365 85.101 65.304 88.714 65.304C92.327 65.304 95.265 62.366 95.265 58.753C95.265 55.14 92.326 52.2 88.714 52.2Z" fill="#33363A"/>
<path d="M84.709 59.416C86.5204 59.416 87.989 57.9475 87.989 56.136C87.989 54.3245 86.5204 52.856 84.709 52.856C82.8975 52.856 81.429 54.3245 81.429 56.136C81.429 57.9475 82.8975 59.416 84.709 59.416Z" fill="white"/>
<path d="M84.71 60.915C82.073 60.915 79.929 58.771 79.929 56.136C79.929 53.501 82.074 51.357 84.71 51.357C87.346 51.357 89.489 53.501 89.489 56.136C89.489 58.771 87.346 60.915 84.71 60.915ZM84.71 54.356C83.728 54.356 82.929 55.154 82.929 56.135C82.929 57.116 83.728 57.914 84.71 57.914C85.691 57.914 86.489 57.116 86.489 56.135C86.489 55.154 85.691 54.356 84.71 54.356Z" fill="#33363A"/>
</svg>
