<svg width="33" height="33" viewBox="0 0 33 33" fill="none" xmlns="http://www.w3.org/2000/svg">
<path d="M22.8512 3.21558H16.6895L13.2942 9.17445H16.053L12.4335 16.5285L21.9458 8.017H18.8555L22.8512 3.21558Z" fill="#FFD400"/>
<path d="M15.5123 5.28134L13.2942 9.17444H16.053L12.4335 16.5285L19.6368 10.0828H17.2358L18.9548 8.01699H18.8555L21.1318 5.28134H15.5123Z" fill="#FFB000"/>
<path d="M12.4335 16.8841C12.3581 16.8841 12.2822 16.8601 12.2187 16.8118C12.0831 16.7087 12.0393 16.5243 12.1147 16.3716L15.482 9.53H13.2944C13.1678 9.53 13.0507 9.46268 12.987 9.35317C12.9232 9.24366 12.9227 9.10855 12.9853 8.99856L16.3804 3.03969C16.4439 2.92852 16.5617 2.86002 16.6895 2.86002H22.8513C22.9892 2.86002 23.1146 2.9399 23.1732 3.06458C23.2317 3.1895 23.2127 3.33693 23.1246 3.44313L19.614 7.66144H21.9458C22.0932 7.66144 22.2255 7.75246 22.2779 7.89018C22.3302 8.0279 22.2926 8.18363 22.1828 8.282L12.6705 16.7935C12.6034 16.8537 12.5183 16.8841 12.4335 16.8841ZM13.906 8.81889H16.0533C16.1763 8.81889 16.2903 8.88242 16.355 8.98647C16.4197 9.09077 16.4264 9.22114 16.3721 9.33136L13.5613 15.0423L21.0152 8.37255H18.8555C18.7176 8.37255 18.5922 8.29267 18.5336 8.16799C18.4751 8.04307 18.494 7.89563 18.5822 7.78944L22.093 3.57113H16.8962L13.906 8.81889Z" fill="#33363A"/>
<path d="M28.1644 21.8197C28.1644 26.7206 22.942 30.6946 16.5 30.6946C10.0579 30.6946 4.83569 26.7204 4.83569 21.8197C4.83569 16.9177 10.0579 11.0442 16.5 11.0442C22.942 11.0442 28.1644 16.918 28.1644 21.8197Z" fill="#FFF800"/>
<path d="M28.1644 21.8197C28.1644 26.7206 22.942 30.6946 16.5 30.6946C10.0579 30.6946 4.83569 26.7204 4.83569 21.8197C4.83569 16.9177 10.0579 13.5404 16.5 13.5404C22.942 13.5407 28.1644 16.918 28.1644 21.8197Z" fill="#FFD400"/>
<path d="M28.1644 21.8197C28.1644 26.7207 22.942 30.6946 16.5 30.6946C10.0579 30.6946 4.83569 26.7204 4.83569 21.8197C4.83569 16.9173 6.31978 26.1669 16.5 26.1669C26.6803 26.1669 28.1644 16.9175 28.1644 21.8197Z" fill="#FFB000"/>
<mask id="path-7-inside-1_6_825" fill="white">
<path d="M16.5 31.0504C9.87222 31.0504 4.4801 26.9096 4.4801 21.8199C4.4801 16.7781 9.84164 10.6889 16.5 10.6889C19.5912 10.6889 22.6089 11.9859 24.9976 14.3407C27.2032 16.5152 28.5199 19.3113 28.5199 21.8199C28.5199 26.9096 23.1278 31.0504 16.5 31.0504ZM16.5 11.3997C10.2356 11.3997 5.19121 17.1 5.19121 21.8197C5.19121 26.5173 10.2643 30.339 16.5 30.339C22.7357 30.339 27.8088 26.5173 27.8088 21.8197C27.8088 17.1 22.7644 11.3997 16.5 11.3997Z"/>
</mask>
<path d="M16.5 31.0504C9.87222 31.0504 4.4801 26.9096 4.4801 21.8199C4.4801 16.7781 9.84164 10.6889 16.5 10.6889C19.5912 10.6889 22.6089 11.9859 24.9976 14.3407C27.2032 16.5152 28.5199 19.3113 28.5199 21.8199C28.5199 26.9096 23.1278 31.0504 16.5 31.0504ZM16.5 11.3997C10.2356 11.3997 5.19121 17.1 5.19121 21.8197C5.19121 26.5173 10.2643 30.339 16.5 30.339C22.7357 30.339 27.8088 26.5173 27.8088 21.8197C27.8088 17.1 22.7644 11.3997 16.5 11.3997Z" fill="#33363A"/>
<path d="M24.9976 14.3407L26.4017 12.9165L26.4016 12.9164L24.9976 14.3407ZM28.5199 21.8199H26.5199H28.5199ZM16.5 29.0504C13.5897 29.0504 11.0217 28.1389 9.22276 26.7575C7.42516 25.3771 6.4801 23.6123 6.4801 21.8199H2.4801C2.4801 25.1171 4.2311 27.9676 6.78651 29.93C9.34063 31.8914 12.7825 33.0504 16.5 33.0504V29.0504ZM6.4801 21.8199C6.4801 19.9623 7.50393 17.6638 9.40078 15.7845C11.2708 13.9318 13.7912 12.6889 16.5 12.6889V8.68887C12.5504 8.68887 9.06092 10.4905 6.58556 12.9429C4.13705 15.3687 2.4801 18.6357 2.4801 21.8199H6.4801ZM16.5 12.6889C19.0184 12.6889 21.5439 13.7445 23.5935 15.7649L26.4016 12.9164C23.6739 10.2274 20.164 8.68887 16.5 8.68887V12.6889ZM23.5934 15.7649C25.5129 17.6573 26.5199 19.9669 26.5199 21.8199H30.5199C30.5199 18.6558 28.8935 15.3732 26.4017 12.9165L23.5934 15.7649ZM26.5199 21.8199C26.5199 23.6123 25.5749 25.3771 23.7773 26.7575C21.9784 28.1389 19.4103 29.0504 16.5 29.0504V33.0504C20.2175 33.0504 23.6594 31.8914 26.2135 29.93C28.7689 27.9676 30.5199 25.1171 30.5199 21.8199H26.5199ZM16.5 9.39975C12.7509 9.39975 9.44018 11.1012 7.09243 13.4155C4.77215 15.7027 3.19121 18.7929 3.19121 21.8197H7.19121C7.19121 20.1268 8.13247 18.007 9.90049 16.2642C11.641 14.5484 13.9847 13.3997 16.5 13.3997V9.39975ZM3.19121 21.8197C3.19121 24.9372 4.8787 27.6114 7.3038 29.4384C9.72882 31.2652 12.9877 32.339 16.5 32.339V28.339C13.7766 28.339 11.3811 27.5019 9.71062 26.2435C8.04026 24.9851 7.19121 23.3997 7.19121 21.8197H3.19121ZM16.5 32.339C20.0123 32.339 23.2712 31.2652 25.6962 29.4384C28.1213 27.6114 29.8088 24.9372 29.8088 21.8197H25.8088C25.8088 23.3997 24.9598 24.9851 23.2894 26.2435C21.619 27.5019 19.2235 28.339 16.5 28.339V32.339ZM29.8088 21.8197C29.8088 18.7929 28.2279 15.7027 25.9076 13.4155C23.5599 11.1012 20.2491 9.39975 16.5 9.39975V13.3997C19.0153 13.3997 21.359 14.5484 23.0995 16.2642C24.8676 18.007 25.8088 20.1268 25.8088 21.8197H29.8088Z" fill="black" mask="url(#path-7-inside-1_6_825)"/>
<path d="M3.53578 13.0161C5.04926 15.5147 7.16979 16.9836 9.22111 17.2379C9.57477 14.6888 9.01441 11.7311 7.50069 9.23249C5.98698 6.73317 3.86644 5.26426 1.81536 5.01086C1.4617 7.55901 2.02206 10.5175 3.53578 13.0161Z" fill="#FFD400"/>
<path d="M1.81536 5.01086C1.4617 7.55901 2.02206 10.5172 3.53578 13.0158C5.04926 15.5145 7.16979 16.9834 9.22111 17.2377L1.81536 5.01086Z" fill="#FFB000"/>
<path d="M7.24445 16.9783C7.19064 16.9783 7.13659 16.9662 7.08539 16.9406C5.59254 16.1925 4.25991 14.8992 3.23141 13.2006C1.72575 10.7153 1.08125 7.71249 1.46311 4.96239C1.48966 4.76991 1.66531 4.63456 1.85873 4.65851C4.11651 4.93726 6.28374 6.53726 7.8048 9.04843C8.70222 10.5299 9.30714 12.2318 9.5539 13.9703C9.58139 14.1646 9.44628 14.3448 9.25191 14.3723C9.05825 14.3984 8.87763 14.2647 8.8499 14.0703C8.61665 12.426 8.04492 10.817 7.19656 9.41702C5.87034 7.22751 4.03805 5.78941 2.12397 5.42011C1.86584 7.91136 2.48285 10.592 3.83988 12.8318C4.79894 14.4159 6.03129 15.6165 7.40397 16.3046C7.57962 16.3925 7.65049 16.6061 7.56255 16.7818C7.50021 16.9064 7.37482 16.9783 7.24445 16.9783Z" fill="#33363A"/>
<path d="M5.63708 6.92115C4.45094 5.82627 3.11927 5.17205 1.81533 5.01086C1.57047 6.77679 1.76508 8.73922 2.41077 10.6087C3.98445 10.1221 6.06611 11.4313 5.63708 6.92115Z" fill="#33363A"/>
<path d="M29.4642 13.0161C27.9507 15.5147 25.8302 16.9836 23.7789 17.238C23.4252 14.6889 23.9853 11.7311 25.4993 9.23253C27.013 6.73345 29.1335 5.26453 31.1849 5.01114C31.5383 7.55905 30.9782 10.5175 29.4642 13.0161Z" fill="#FFD400"/>
<path d="M31.1849 5.01089C31.5383 7.55904 30.9782 10.5173 29.4643 13.0159C27.9508 15.5145 25.8302 16.9834 23.7789 17.2377L31.1849 5.01089Z" fill="#FFB000"/>
<path d="M25.7556 16.9782C25.6252 16.9782 25.4998 16.9064 25.4375 16.7819C25.3495 16.6065 25.4204 16.3927 25.596 16.3048C26.9683 15.6171 28.2006 14.416 29.1601 12.8319C30.5172 10.5926 31.1342 7.91151 30.8763 5.41954C28.962 5.78908 27.1294 7.22695 25.8035 9.41646C24.9551 10.8171 24.3834 12.4261 24.1504 14.0697C24.1229 14.2639 23.9456 14.399 23.7483 14.3717C23.554 14.3442 23.4186 14.1641 23.4464 13.9697C23.6926 12.2322 24.2976 10.5301 25.1952 9.04787C26.7163 6.5367 28.8837 4.9367 31.1415 4.65794C31.334 4.63424 31.5106 4.76935 31.5371 4.96182C31.9188 7.7124 31.2743 10.7149 29.7686 13.2C28.7396 14.8989 27.407 16.1922 25.9146 16.94C25.8634 16.9661 25.8089 16.9782 25.7556 16.9782Z" fill="#33363A"/>
<path d="M27.3629 6.92118C28.5492 5.8263 29.8807 5.17208 31.1849 5.01089C31.4297 6.77658 31.2351 8.73925 30.5894 10.6085C29.0155 10.1221 26.9336 11.4313 27.3629 6.92118Z" fill="#33363A"/>
</svg>
